<?xml version="1.0" encoding="UTF-8" standalone="no"?>
<!-- Created with Inkscape (http://www.inkscape.org/) -->

<svg
   width="48"
   height="48"
   viewBox="0 0 12.699999 12.699999"
   version="1.1"
   id="svg1"
   xmlns="http://www.w3.org/2000/svg"
   xmlns:svg="http://www.w3.org/2000/svg">
  <defs
     id="defs1">
    <linearGradient
       x1="0"
       y1="0"
       x2="1"
       y2="0"
       gradientUnits="userSpaceOnUse"
       gradientTransform="matrix(-864.45,1337.45,1337.45,864.45,1726.1,1093.73)"
       spreadMethod="pad"
       id="linearGradient4">
      <stop
         style="stop-opacity:1;stop-color:#ffffff"
         offset="0"
         id="stop2" />
      <stop
         style="stop-opacity:1;stop-color:#c8e438"
         offset="0.240447"
         id="stop3" />
      <stop
         style="stop-opacity:1;stop-color:#85cf41"
         offset="1"
         id="stop4" />
    </linearGradient>
    <clipPath
       clipPathUnits="userSpaceOnUse"
       id="clipPath4">
      <path
         d="m 460.332,2171.79 c 0,0 949.748,499.72 1438.588,-483.31 0,0 226.64,-483.9 -237.61,-604.47 0,0 -590.31,-109.03 -453.4,587.68 0,0 71.46,363.91 -435.039,499.58 0,0 -237.883,31.88 -312.539,0.52 z"
         transform="translate(0,2.5e-5)"
         id="path4" />
    </clipPath>
  </defs>
  <g
     id="layer1">
    <path
       id="path2"
       d="m 460.332,2171.79 c 0,0 949.748,499.72 1438.588,-483.31 0,0 226.64,-483.9 -237.61,-604.47 0,0 -590.31,-109.03 -453.4,587.68 0,0 71.46,363.91 -435.039,499.58 0,0 -237.883,31.88 -312.539,0.52"
       style="fill:url(#linearGradient4);fill-opacity:1;fill-rule:nonzero;stroke:none"
       transform="matrix(0.00637464,0,0,-0.00637464,0.06834071,14.749565)"
       clip-path="url(#clipPath4)" />
    <path
       id="path5"
       d="m 3.202398,11.86255 c 0,0 -5.7079625,-3.7710996 -1.7175693,-9.5204448 0,0 2.0072899,-2.75199319 4.1063865,-0.5288397 0,0 2.4217683,2.9628659 -1.8907034,4.3374282 0,0 -2.2523623,0.7182298 -1.4549345,3.9643143 0,0 0.5523498,1.42677 0.9568207,1.747542"
       style="fill:#346ba1;fill-opacity:1;fill-rule:nonzero;stroke:none;stroke-width:0.00637464" />
    <path
       id="path6"
       d="m 12.644919,6.122645 c 0,0 -0.151651,6.853049 -7.2010917,6.479043 0,0 -3.4265695,-0.261862 -2.6571257,-3.2226255 0,0 1.2272379,-3.6254452 4.7166931,-0.672523 0,0 1.8228269,1.5420365 4.1642943,-0.8476356 0,0 0.920751,-1.2224633 0.97723,-1.7362589"
       style="fill:#181817;fill-opacity:1;fill-rule:nonzero;stroke:none;stroke-width:0.00637464" />
  </g>
</svg>
