<?xml version="1.0" encoding="UTF-8" standalone="no"?>
<!-- Created with Inkscape (http://www.inkscape.org/) -->

<svg
   width="46.000004"
   height="46.000004"
   viewBox="0 0 12.170833 12.170833"
   version="1.1"
   id="svg1"
   sodipodi:docname="logo_icon.svg"
   inkscape:export-filename="logo_icon.png"
   inkscape:export-xdpi="96"
   inkscape:export-ydpi="96"
   xmlns:inkscape="http://www.inkscape.org/namespaces/inkscape"
   xmlns:sodipodi="http://sodipodi.sourceforge.net/DTD/sodipodi-0.dtd"
   xmlns="http://www.w3.org/2000/svg"
   xmlns:svg="http://www.w3.org/2000/svg">
  <sodipodi:namedview
     id="namedview1"
     pagecolor="#ffffff"
     bordercolor="#000000"
     borderopacity="0.25"
     inkscape:showpageshadow="2"
     inkscape:pageopacity="0.0"
     inkscape:pagecheckerboard="0"
     inkscape:deskcolor="#d1d1d1">
    <inkscape:page
       x="6.2327377e-18"
       y="6.2327377e-18"
       width="12.170833"
       height="12.170833"
       id="page2"
       margin="0"
       bleed="0" />
  </sodipodi:namedview>
  <defs
     id="defs1">
    <linearGradient
       x1="0"
       y1="0"
       x2="1"
       y2="0"
       gradientUnits="userSpaceOnUse"
       gradientTransform="matrix(-864.45,1337.45,1337.45,864.45,1726.1,1093.73)"
       spreadMethod="pad"
       id="linearGradient4">
      <stop
         style="stop-opacity:1;stop-color:#ffffff"
         offset="0"
         id="stop2" />
      <stop
         style="stop-opacity:1;stop-color:#c8e438"
         offset="0.240447"
         id="stop3" />
      <stop
         style="stop-opacity:1;stop-color:#85cf41"
         offset="1"
         id="stop4" />
    </linearGradient>
    <clipPath
       clipPathUnits="userSpaceOnUse"
       id="clipPath4">
      <path
         d="m 460.332,2171.79 c 0,0 949.748,499.72 1438.588,-483.31 0,0 226.64,-483.9 -237.61,-604.47 0,0 -590.31,-109.03 -453.4,587.68 0,0 71.46,363.91 -435.039,499.58 0,0 -237.883,31.88 -312.539,0.52 z"
         transform="translate(0,2.5e-5)"
         id="path4" />
    </clipPath>
  </defs>
  <g
     inkscape:groupmode="layer"
     id="layer2"
     inkscape:label="Layer 1"
     transform="translate(-0.26458312,-0.26458312)">
    <circle
       style="fill:#ffffff;stroke-width:0.878914"
       id="path1"
       cx="6.3499994"
       cy="6.3499994"
       r="6.0854163" />
  </g>
  <g
     id="layer1"
     style="display:inline"
     transform="translate(-0.30514828,-0.25250078)">
    <path
       id="path2"
       d="m 460.332,2171.79 c 0,0 949.748,499.72 1438.588,-483.31 0,0 226.64,-483.9 -237.61,-604.47 0,0 -590.31,-109.03 -453.4,587.68 0,0 71.46,363.91 -435.039,499.58 0,0 -237.883,31.88 -312.539,0.52"
       style="fill:url(#linearGradient4);fill-opacity:1;fill-rule:nonzero;stroke:none"
       transform="matrix(0.00585885,0,0,-0.00585885,0.61107649,14.052325)"
       clip-path="url(#clipPath4)" />
    <path
       id="path5"
       d="m 3.4915473,11.398908 c 0,0 -5.2461132,-3.4659687 -1.5785954,-8.7501162 0,0 1.8448737,-2.52932064 3.7741258,-0.4860496 0,0 2.2258153,2.7231311 -1.7377206,3.9864732 0,0 -2.0701165,0.6601155 -1.3372111,3.643549 0,0 0.5076574,1.3113256 0.8794013,1.6061436"
       style="fill:#346ba1;fill-opacity:1;fill-rule:nonzero;stroke:none;stroke-width:0.00585885" />
    <path
       id="path6"
       d="m 12.170044,6.1234362 c 0,0 -0.139381,6.2985478 -6.6184286,5.9548038 0,0 -3.1493149,-0.240674 -2.4421292,-2.9618734 0,0 1.1279382,-3.3320989 4.3350505,-0.618107 0,0 1.6753362,1.4172654 3.8273483,-0.7790507 0,0 0.84625,-1.12355 0.898159,-1.5957727"
       style="fill:#181817;fill-opacity:1;fill-rule:nonzero;stroke:none;stroke-width:0.00585885" />
  </g>
</svg>
